<svg width="88" height="13" viewBox="0 0 88 13" fill="none" xmlns="http://www.w3.org/2000/svg">
<path d="M2.55469 2.48438V10H4.77344C5.90885 10 6.70052 9.4401 7.14844 8.32031C7.39323 7.70573 7.51562 6.97396 7.51562 6.125C7.51562 4.95312 7.33073 4.05469 6.96094 3.42969C6.59635 2.79948 5.86719 2.48438 4.77344 2.48438H2.55469ZM5.17969 0.484375C5.89323 0.494792 6.48698 0.578125 6.96094 0.734375C7.76823 1 8.42188 1.48698 8.92188 2.19531C9.32292 2.76823 9.59635 3.38802 9.74219 4.05469C9.88802 4.72135 9.96094 5.35677 9.96094 5.96094C9.96094 7.49219 9.65365 8.78906 9.03906 9.85156C8.20573 11.2839 6.91927 12 5.17969 12H0.21875V0.484375H5.17969ZM15.9609 5.09375C15.4453 5.09375 15.0443 5.25521 14.7578 5.57812C14.4766 5.90104 14.2995 6.33854 14.2266 6.89062H17.6875C17.651 6.30208 17.4714 5.85677 17.1484 5.55469C16.8307 5.2474 16.4349 5.09375 15.9609 5.09375ZM15.9609 3.25781C16.6693 3.25781 17.3073 3.39062 17.875 3.65625C18.4427 3.92188 18.9115 4.34115 19.2812 4.91406C19.6146 5.41927 19.8307 6.00521 19.9297 6.67188C19.987 7.0625 20.0104 7.625 20 8.35938H14.1719C14.2031 9.21354 14.4714 9.8125 14.9766 10.1562C15.2839 10.3698 15.6536 10.4766 16.0859 10.4766C16.5443 10.4766 16.9167 10.3464 17.2031 10.0859C17.3594 9.94531 17.4974 9.75 17.6172 9.5H19.8906C19.8333 10.0052 19.5703 10.5182 19.1016 11.0391C18.3724 11.8672 17.3516 12.2812 16.0391 12.2812C14.9557 12.2812 14 11.9323 13.1719 11.2344C12.3438 10.5365 11.9297 9.40104 11.9297 7.82812C11.9297 6.35417 12.3021 5.22396 13.0469 4.4375C13.7969 3.65104 14.7682 3.25781 15.9609 3.25781ZM22.6875 0.5H30.8516V2.52344H25.0781V5.17188H30.1328V7.17188H25.0781V12H22.6875V0.5ZM35.5781 2.46875H33.3203V0.414062H35.5781V2.46875ZM33.3203 3.48438H35.5781V12H33.3203V3.48438Z" fill="#FF6400"/>
<path d="M45.4062 4.14844C45.4062 3.54948 45.2474 3.1224 44.9297 2.86719C44.6172 2.61198 44.1771 2.48438 43.6094 2.48438H41.3672V5.875H43.6094C44.1771 5.875 44.6172 5.73698 44.9297 5.46094C45.2474 5.1849 45.4062 4.7474 45.4062 4.14844ZM47.7891 4.13281C47.7891 5.49219 47.4453 6.45312 46.7578 7.01562C46.0703 7.57812 45.0885 7.85938 43.8125 7.85938H41.3672V12H38.9766V0.484375H43.9922C45.1484 0.484375 46.0703 0.78125 46.7578 1.375C47.4453 1.96875 47.7891 2.88802 47.7891 4.13281ZM55.1094 7.85938C54.9688 7.94792 54.8255 8.02083 54.6797 8.07812C54.5391 8.13021 54.3438 8.17969 54.0938 8.22656L53.5938 8.32031C53.125 8.40365 52.7891 8.50521 52.5859 8.625C52.2422 8.82812 52.0703 9.14323 52.0703 9.57031C52.0703 9.95052 52.1745 10.2266 52.3828 10.3984C52.5964 10.5651 52.8542 10.6484 53.1562 10.6484C53.6354 10.6484 54.0755 10.5078 54.4766 10.2266C54.8828 9.94531 55.0938 9.43229 55.1094 8.6875V7.85938ZM53.7578 6.82031C54.1693 6.76823 54.4635 6.70312 54.6406 6.625C54.9583 6.48958 55.1172 6.27865 55.1172 5.99219C55.1172 5.64323 54.9948 5.40365 54.75 5.27344C54.5104 5.13802 54.1562 5.07031 53.6875 5.07031C53.1615 5.07031 52.7891 5.20052 52.5703 5.46094C52.4141 5.65365 52.3099 5.91406 52.2578 6.24219H50.1094C50.1562 5.4974 50.3646 4.88542 50.7344 4.40625C51.3229 3.65625 52.3333 3.28125 53.7656 3.28125C54.6979 3.28125 55.526 3.46615 56.25 3.83594C56.974 4.20573 57.3359 4.90365 57.3359 5.92969V9.83594C57.3359 10.1068 57.3411 10.4349 57.3516 10.8203C57.3672 11.112 57.4115 11.3099 57.4844 11.4141C57.5573 11.5182 57.6667 11.6042 57.8125 11.6719V12H55.3906C55.3229 11.8281 55.276 11.6667 55.25 11.5156C55.224 11.3646 55.2031 11.1927 55.1875 11C54.8802 11.3333 54.526 11.6172 54.125 11.8516C53.6458 12.1276 53.1042 12.2656 52.5 12.2656C51.7292 12.2656 51.0911 12.0469 50.5859 11.6094C50.0859 11.1667 49.8359 10.5417 49.8359 9.73438C49.8359 8.6875 50.2396 7.92969 51.0469 7.46094C51.4896 7.20573 52.1406 7.02344 53 6.91406L53.7578 6.82031ZM65.4062 6.53906C65.3646 6.22135 65.2578 5.9349 65.0859 5.67969C64.8359 5.33594 64.4479 5.16406 63.9219 5.16406C63.1719 5.16406 62.6589 5.53646 62.3828 6.28125C62.237 6.67708 62.1641 7.20312 62.1641 7.85938C62.1641 8.48438 62.237 8.98698 62.3828 9.36719C62.6484 10.0755 63.1484 10.4297 63.8828 10.4297C64.4036 10.4297 64.7734 10.2891 64.9922 10.0078C65.2109 9.72656 65.3438 9.36198 65.3906 8.91406H67.6641C67.612 9.59115 67.3672 10.2318 66.9297 10.8359C66.2318 11.8099 65.1979 12.2969 63.8281 12.2969C62.4583 12.2969 61.4505 11.8906 60.8047 11.0781C60.1589 10.2656 59.8359 9.21094 59.8359 7.91406C59.8359 6.45052 60.1927 5.3125 60.9062 4.5C61.6198 3.6875 62.6042 3.28125 63.8594 3.28125C64.9271 3.28125 65.7995 3.52083 66.4766 4C67.1589 4.47917 67.5625 5.32552 67.6875 6.53906H65.4062ZM70.2031 0.523438H72.3906V6.72656L75.1641 3.52344H77.9219L74.9453 6.78125L78.0391 12H75.3516L73.3125 8.35938L72.3906 9.32031V12H70.2031V0.523438ZM81.8672 9.28125C81.9141 9.67708 82.0156 9.95833 82.1719 10.125C82.4479 10.4219 82.9583 10.5703 83.7031 10.5703C84.1406 10.5703 84.487 10.5052 84.7422 10.375C85.0026 10.2448 85.1328 10.0495 85.1328 9.78906C85.1328 9.53906 85.0286 9.34896 84.8203 9.21875C84.612 9.08854 83.8385 8.86458 82.5 8.54688C81.5365 8.30729 80.8568 8.00781 80.4609 7.64844C80.0651 7.29427 79.8672 6.78385 79.8672 6.11719C79.8672 5.33073 80.1745 4.65625 80.7891 4.09375C81.4089 3.52604 82.2786 3.24219 83.3984 3.24219C84.4609 3.24219 85.3255 3.45573 85.9922 3.88281C86.6641 4.30469 87.0495 5.03646 87.1484 6.07812H84.9219C84.8906 5.79167 84.8099 5.5651 84.6797 5.39844C84.4349 5.09635 84.0182 4.94531 83.4297 4.94531C82.9453 4.94531 82.599 5.02083 82.3906 5.17188C82.1875 5.32292 82.0859 5.5 82.0859 5.70312C82.0859 5.95833 82.1953 6.14323 82.4141 6.25781C82.6328 6.3776 83.4062 6.58333 84.7344 6.875C85.6198 7.08333 86.2839 7.39844 86.7266 7.82031C87.1641 8.2474 87.3828 8.78125 87.3828 9.42188C87.3828 10.2656 87.0677 10.9557 86.4375 11.4922C85.8125 12.0234 84.8438 12.2891 83.5312 12.2891C82.1927 12.2891 81.2031 12.0078 80.5625 11.4453C79.9271 10.8776 79.6094 10.1562 79.6094 9.28125H81.8672Z" fill="#006FFF"/>
</svg>
