<?xml version="1.0" encoding="UTF-8"?>
<svg width="694px" height="694px" viewBox="0 0 694 694" version="1.1" xmlns="http://www.w3.org/2000/svg" xmlns:xlink="http://www.w3.org/1999/xlink">
    <title>77223A00-D421-4239-9309-8FC8F9E60FF3</title>
    <defs>
        <filter x="-1.0%" y="-1.0%" width="101.9%" height="101.9%" filterUnits="objectBoundingBox" id="filter-1">
            <feOffset dx="0" dy="2" in="SourceAlpha" result="shadowOffsetOuter1"></feOffset>
            <feGaussianBlur stdDeviation="0.5" in="shadowOffsetOuter1" result="shadowBlurOuter1"></feGaussianBlur>
            <feColorMatrix values="0 0 0 0 0   0 0 0 0 0   0 0 0 0 0  0 0 0 0.2 0" type="matrix" in="shadowBlurOuter1" result="shadowMatrixOuter1"></feColorMatrix>
            <feMerge>
                <feMergeNode in="shadowMatrixOuter1"></feMergeNode>
                <feMergeNode in="SourceGraphic"></feMergeNode>
            </feMerge>
        </filter>
    </defs>
    <g id="Designs---Desktop" stroke="none" stroke-width="1" fill="none" fill-rule="evenodd">
        <g id="Lightlogolarge" transform="translate(5.000000, 5.000000)" filter="url(#filter-1)">
            <rect id="Spacing" x="0" y="0" width="684" height="684"></rect>
            <g id="Lightlogolarge-Elements" transform="translate(120.000000, 120.000000)">
                <polygon id="Lightlogopath" fill="#252525" points="252 160 0 160 0 444 284 444 284 16 428 16 428 160 300 160 300 176 444 176 444 9.85878046e-14 268 9.85878046e-14 268 428 16 428 16 176 252 176"></polygon>
                <rect id="Connectingblock" fill="#D6D6D6" x="260" y="152" width="32" height="32"></rect>
                <rect id="Lightlargeblock" stroke="#F2F2F2" fill="#FF6400" x="32.5" y="192.5" width="219" height="219"></rect>
                <rect id="Lightsmallblock" stroke="#F2F2F2" fill="#006FFF" x="300.5" y="32.5" width="111" height="111"></rect>
            </g>
            <path d="M183,195 C196,195 203,200.75 206,205 C208.40625,208.4375 210.125,212 211,216 C211.875,220 212,224.375 212,228 C212,237.1875 209.6875,244.625 206,251 C201,259.59375 193.4375,264 183,264 L183,264 L153,264 L153,195 Z M180,207 L167,207 L167,252 L180,252 C186.8125,252 192.3125,248.71875 195,242 C196.46875,238.3125 197,234.09375 197,229 C197,221.96875 197,217 194,213 C191,209 188,207 180,207 L180,207 Z" id="Combined-Shape" stroke="#F2F2F2" fill="#252525" fill-rule="nonzero"></path>
            <path d="M248.6875,211.546875 C252.9375,211.546875 256.765625,212.34375 260.171875,213.9375 C263.578125,215.53125 266.390625,218.046875 268.609375,221.484375 C270.609375,224.515625 271.90625,228.03125 272.5,232.03125 C272.84375,234.375 273.0625,237.59375 273,242 L273,242 L238,242 C238.1875,247.125 239.75,250.875 242.78125,252.9375 C244.625,254.21875 246.84375,254.859375 249.4375,254.859375 C252.1875,254.859375 254.421875,254.078125 256.140625,252.515625 C257.078125,251.671875 257.90625,250.5 258.625,249 L258.625,249 L272.265625,249 C271.921875,252.03125 270.34375,255.109375 267.53125,258.234375 C263.15625,263.203125 257.03125,265.6875 249.15625,265.6875 C242.65625,265.6875 236.921875,263.59375 231.953125,259.40625 C226.984375,255.21875 224,248.4375 224,239 C224,230.15625 226.742187,223.34375 231.226562,218.625 C235.710937,213.90625 241.53125,211.546875 248.6875,211.546875 Z M248.6875,222.5625 C245.59375,222.5625 243.195312,223.53125 241.492187,225.46875 C239.789062,227.40625 238.71875,230.03125 238.28125,233.34375 L238.28125,233.34375 L259.046875,233.34375 C258.828125,229.8125 257.757812,227.132812 255.835937,225.304688 C253.914062,223.476562 251.53125,222.5625 248.6875,222.5625 Z" id="Combined-Shape" stroke="#F2F2F2" fill="#252525" fill-rule="nonzero"></path>
            <polygon id="Path" stroke="#F2F2F2" fill="#252525" fill-rule="nonzero" points="304 264 304 235 335 235 335 223 304 223 304 207 339 207 339 195 290 195 290 264"></polygon>
            <polygon id="Path" stroke="#F2F2F2" fill="#252525" fill-rule="nonzero" points="369 207 369 195 354 195 354 207"></polygon>
            <polygon id="Path" stroke="#F2F2F2" fill="#252525" fill-rule="nonzero" points="369 264 369 213 354 213 354 264"></polygon>
            <path d="M342.984375,473 L342.984375,448.15625 L357.65625,448.15625 C365.3125,448.15625 371.203125,446.46875 375.328125,443.09375 C379.453125,439.71875 381.515625,433.953125 381.515625,425.796875 C381.515625,418.328125 379.453125,412.8125 375.328125,409.25 C371.203125,405.6875 365.671875,403.90625 358.734375,403.90625 L358.734375,403.90625 L328.640625,403.90625 L328.640625,473 L342.984375,473 Z M356.4375,436.25 L342.984375,436.25 L342.984375,415.90625 L356.4375,415.90625 C359.84375,415.90625 362.492188,416.671875 364.382812,418.203125 C366.273438,419.734375 367.21875,422.296875 367.21875,425.890625 C367.21875,429.484375 366.273438,432.109375 364.382812,433.765625 C362.492188,435.421875 359.84375,436.25 356.4375,436.25 L356.4375,436.25 Z M413.290625,474.6875 C421.165625,474.6875 427.290625,472.203125 431.665625,467.234375 C434.478125,464.109375 436.05625,461.03125 436.4,458 L436.4,458 L422.759375,458 C422.040625,459.5 421.2125,460.671875 420.275,461.515625 C418.55625,463.078125 416.321875,463.859375 413.571875,463.859375 C410.978125,463.859375 408.759375,463.21875 406.915625,461.9375 C403.884375,459.875 402.275,456.28125 402.0875,451.15625 L402.0875,451.15625 L437.05625,451.15625 C437.11875,446.75 436.978125,443.375 436.634375,441.03125 C436.040625,437.03125 434.74375,433.515625 432.74375,430.484375 C430.525,427.046875 427.7125,424.53125 424.30625,422.9375 C420.9,421.34375 417.071875,420.546875 412.821875,420.546875 C405.665625,420.546875 399.845312,422.90625 395.360937,427.625 C390.876562,432.34375 388.634375,439.125 388.634375,447.96875 C388.634375,457.40625 391.11875,464.21875 396.0875,468.40625 C401.05625,472.59375 406.790625,474.6875 413.290625,474.6875 Z M423.18125,442.34375 L402.415625,442.34375 C402.853125,439.03125 403.923437,436.40625 405.626562,434.46875 C407.329687,432.53125 409.728125,431.5625 412.821875,431.5625 C415.665625,431.5625 418.048437,432.476562 419.970312,434.304688 C421.892187,436.132812 422.9625,438.8125 423.18125,442.34375 L423.18125,442.34375 Z M465.3625,474.59375 C468.9875,474.59375 472.01875,473.90625 474.45625,472.53125 C476.89375,471.15625 479.065625,468.953125 480.971875,465.921875 L480.971875,465.921875 L480.971875,473 L493.95625,473 L493.95625,404 L480.409375,404 L480.409375,428.375 C478.909375,425.96875 476.95625,424.085938 474.55,422.726562 C472.14375,421.367188 469.39375,420.6875 466.3,420.6875 C459.58125,420.6875 454.214062,423.1875 450.198437,428.1875 C446.182812,433.1875 444.175,440.046875 444.175,448.765625 C444.175,456.328125 446.214062,462.523438 450.292187,467.351562 C454.370312,472.179688 459.39375,474.59375 465.3625,474.59375 Z M469.20625,463.34375 C465.425,463.34375 462.604688,461.929688 460.745313,459.101562 C458.885938,456.273438 457.95625,452.5 457.95625,447.78125 C457.95625,443.40625 458.870313,439.742188 460.698438,436.789062 C462.526563,433.835938 465.39375,432.359375 469.3,432.359375 C471.8625,432.359375 474.1125,433.171875 476.05,434.796875 C479.20625,437.484375 480.784375,441.953125 480.784375,448.203125 C480.784375,452.671875 479.8,456.3125 477.83125,459.125 C475.8625,461.9375 472.9875,463.34375 469.20625,463.34375 Z M521.23125,415.8125 L521.23125,403.484375 L507.684375,403.484375 L507.684375,415.8125 L521.23125,415.8125 Z M521.23125,473 L521.23125,421.90625 L507.684375,421.90625 L507.684375,473 L521.23125,473 Z M548.084375,474.59375 C551.709375,474.59375 554.959375,473.765625 557.834375,472.109375 C560.240625,470.703125 562.365625,469 564.209375,467 C564.303125,468.15625 564.428125,469.1875 564.584375,470.09375 C564.740625,471 565.021875,471.96875 565.428125,473 L565.428125,473 L579.959375,473 L579.959375,471.03125 C579.084375,470.625 578.428125,470.109375 577.990625,469.484375 C577.553125,468.859375 577.2875,467.671875 577.19375,465.921875 C577.13125,463.609375 577.1,461.640625 577.1,460.015625 L577.1,436.578125 C577.1,430.421875 574.928125,426.234375 570.584375,424.015625 C566.240625,421.796875 561.271875,420.6875 555.678125,420.6875 C547.084375,420.6875 541.021875,422.9375 537.490625,427.4375 C535.271875,430.3125 534.021875,433.984375 533.740625,438.453125 L533.740625,438.453125 L546.63125,438.453125 C546.94375,436.484375 547.56875,434.921875 548.50625,433.765625 C549.81875,432.203125 552.053125,431.421875 555.209375,431.421875 C558.021875,431.421875 560.154688,431.820312 561.607813,432.617188 C563.060938,433.414062 563.7875,434.859375 563.7875,436.953125 C563.7875,438.671875 562.834375,439.9375 560.928125,440.75 C559.865625,441.21875 558.1,441.609375 555.63125,441.921875 L555.63125,441.921875 L551.084375,442.484375 C545.928125,443.140625 542.021875,444.234375 539.365625,445.765625 C534.521875,448.578125 532.1,453.125 532.1,459.40625 C532.1,464.25 533.607813,467.992188 536.623438,470.632812 C539.639063,473.273438 543.459375,474.59375 548.084375,474.59375 Z M552.021875,464.890625 C550.209375,464.890625 548.670313,464.382812 547.404688,463.367188 C546.139063,462.351562 545.50625,460.703125 545.50625,458.421875 C545.50625,455.859375 546.5375,453.96875 548.6,452.75 C549.81875,452.03125 551.834375,451.421875 554.646875,450.921875 L554.646875,450.921875 L557.646875,450.359375 C559.146875,450.078125 560.326563,449.773438 561.185938,449.445312 C562.045313,449.117188 562.896875,448.6875 563.740625,448.15625 L563.740625,448.15625 L563.740625,453.125 C563.646875,457.59375 562.389063,460.671875 559.967188,462.359375 C557.545313,464.046875 554.896875,464.890625 552.021875,464.890625 Z" id="Pedia" stroke="#F2F2F2" fill="#252525" fill-rule="nonzero" transform="translate(454.300000, 439.085938) rotate(90.000000) translate(-454.300000, -439.085938) "></path>
        </g>
    </g>
</svg>